<svg width="16" height="16" viewBox="0 0 16 16" fill="none" xmlns="http://www.w3.org/2000/svg">
<g clip-path="url(#clip0_1822_2339)">
<path d="M2.06055 8H0.922854V2.21387C0.922854 1.81999 0.987959 1.48958 1.11817 1.22266C1.25163 0.952474 1.4388 0.747396 1.67969 0.607422C1.92383 0.467448 2.21192 0.397461 2.54395 0.397461C2.64486 0.397461 2.74414 0.405599 2.8418 0.421875C2.93946 0.434896 3.03223 0.456055 3.12012 0.485352L3.09571 1.41309C3.05013 1.40007 2.99317 1.3903 2.92481 1.38379C2.8597 1.37728 2.79623 1.37402 2.73438 1.37402C2.59115 1.37402 2.46908 1.40658 2.36817 1.47168C2.26726 1.53678 2.19076 1.63118 2.13867 1.75488C2.08659 1.87858 2.06055 2.03158 2.06055 2.21387V8ZM2.91992 2.7168V3.5957H0.258792V2.7168H2.91992ZM3.83301 5.19238V5.10938C3.83301 4.41276 3.90137 3.78125 4.03809 3.21484C4.17481 2.64518 4.34896 2.14714 4.56055 1.7207C4.77539 1.29102 5.00326 0.936198 5.24414 0.65625C5.48503 0.376302 5.71127 0.172852 5.92285 0.0458984L6.14258 0.734375C5.99284 0.874349 5.84147 1.06803 5.68848 1.31543C5.53874 1.55957 5.40039 1.86068 5.27344 2.21875C5.14649 2.57682 5.04395 2.99512 4.96582 3.47363C4.89095 3.95215 4.85352 4.49414 4.85352 5.09961V5.20215C4.85352 5.80762 4.89095 6.34961 4.96582 6.82812C5.04395 7.30664 5.14649 7.72656 5.27344 8.08789C5.40039 8.44922 5.53874 8.75358 5.68848 9.00098C5.84147 9.25163 5.99284 9.45182 6.14258 9.60156L5.92285 10.2559C5.71127 10.1289 5.48503 9.92546 5.24414 9.64551C5.00326 9.36556 4.77539 9.01074 4.56055 8.58105C4.34896 8.15462 4.17481 7.6582 4.03809 7.0918C3.90137 6.52539 3.83301 5.89225 3.83301 5.19238ZM7.86153 0.890625L9.02852 3.4248L10.1662 0.890625H11.4992L9.72188 4.41113L11.5383 8H10.1613L8.98946 5.41211L7.8127 8H6.46016L8.29121 4.39648L6.49922 0.890625H7.86153ZM14.1898 5.10938V5.19238C14.1898 5.87923 14.1215 6.50586 13.9848 7.07227C13.8481 7.63867 13.6706 8.13672 13.4525 8.56641C13.2344 8.99609 13.0017 9.35254 12.7543 9.63574C12.5102 9.9222 12.279 10.1289 12.0609 10.2559L11.8412 9.60156C11.9877 9.46159 12.1358 9.26628 12.2856 9.01562C12.4385 8.76823 12.5785 8.46224 12.7055 8.09766C12.8357 7.73633 12.9382 7.31478 13.0131 6.83301C13.0912 6.35124 13.1303 5.80762 13.1303 5.20215V5.09961C13.1303 4.49414 13.0896 3.95052 13.0082 3.46875C12.9301 2.98698 12.8243 2.56543 12.6908 2.2041C12.5606 1.84277 12.4206 1.53841 12.2709 1.29102C12.1212 1.04036 11.9779 0.845052 11.8412 0.705078L12.0609 0.0507812C12.279 0.174479 12.5102 0.379557 12.7543 0.666016C13.0017 0.952474 13.2344 1.31055 13.4525 1.74023C13.6706 2.16992 13.8481 2.66797 13.9848 3.23438C14.1215 3.79753 14.1898 4.42253 14.1898 5.10938Z" fill="#3E3A39"/>
<path d="M16 13.0833L13.5665 16L13.5665 13.75L11.9442 13.75L0.8125 13.75L0.8125 12.4169L11.9442 12.4169L13.5665 12.4169L13.5665 9.75L16 13.0833Z" fill="#201E1E"/>
</g>
<defs>
<clipPath id="clip0_1822_2339">
<rect width="16" height="16" fill="white"/>
</clipPath>
</defs>
</svg>
