<svg width="16" height="16" viewBox="0 0 16 16" fill="none" xmlns="http://www.w3.org/2000/svg">
<g clip-path="url(#clip0_1824_2369)">
<path fill-rule="evenodd" clip-rule="evenodd" d="M3.83301 5.10938V5.19238C3.83301 5.89225 3.90137 6.52539 4.03809 7.0918C4.1748 7.6582 4.34896 8.15462 4.56055 8.58105C4.77539 9.01074 5.00326 9.36556 5.24414 9.64551C5.48503 9.92546 5.71126 10.1289 5.92285 10.2559L6.14258 9.60156C5.99284 9.45182 5.84147 9.25163 5.68848 9.00098C5.53874 8.75358 5.40039 8.44922 5.27344 8.08789C5.14648 7.72656 5.04395 7.30664 4.96582 6.82812C4.89095 6.34961 4.85352 5.80762 4.85352 5.20215V5.09961C4.85352 4.49414 4.89095 3.95215 4.96582 3.47363C5.04395 2.99512 5.14648 2.57682 5.27344 2.21875C5.40039 1.86068 5.53874 1.55957 5.68848 1.31543C5.84147 1.06803 5.99284 0.874349 6.14258 0.734375L5.92285 0.0458984C5.71126 0.172852 5.48503 0.376302 5.24414 0.65625C5.00326 0.936198 4.77539 1.29102 4.56055 1.7207C4.34896 2.14714 4.1748 2.64518 4.03809 3.21484C3.90137 3.78125 3.83301 4.41276 3.83301 5.10938ZM0.922852 8H2.06055V3.5957H2.91992V2.7168H2.06055V2.21387C2.06055 2.03158 2.08659 1.87858 2.13867 1.75488C2.19076 1.63118 2.26725 1.53678 2.36816 1.47168C2.46908 1.40658 2.59115 1.37402 2.73438 1.37402C2.79622 1.37402 2.8597 1.37728 2.9248 1.38379C2.99316 1.3903 3.05013 1.40007 3.0957 1.41309L3.12012 0.485352C3.03223 0.456055 2.93945 0.434896 2.8418 0.421875C2.74414 0.405599 2.64486 0.397461 2.54395 0.397461C2.21191 0.397461 1.92383 0.467448 1.67969 0.607422C1.4388 0.747396 1.25163 0.952474 1.11816 1.22266C0.987956 1.48958 0.922852 1.81999 0.922852 2.21387V2.7168H0.258789V3.5957H0.922852V8ZM7.86152 0.890625L9.02852 3.4248L10.1662 0.890625H11.4992L9.72188 4.41113L11.1552 7.24315L9.81979 7.24576L8.98945 5.41211L7.8127 8H6.46016L8.29121 4.39648L6.49922 0.890625H7.86152ZM11.8883 9.74173L12.0609 10.2559C12.2516 10.1449 12.4521 9.97302 12.6626 9.74021L11.8883 9.74173ZM13.9432 7.23771C13.9574 7.18322 13.9713 7.12808 13.9848 7.07227C14.1215 6.50586 14.1898 5.87923 14.1898 5.19238V5.10938C14.1898 4.42253 14.1215 3.79753 13.9848 3.23438C13.848 2.66797 13.6706 2.16992 13.4525 1.74023C13.2344 1.31055 13.0017 0.952474 12.7543 0.666016C12.5102 0.379557 12.279 0.174479 12.0609 0.0507812L11.8412 0.705078C11.9779 0.845052 12.1212 1.04036 12.2709 1.29102C12.4206 1.53841 12.5606 1.84277 12.6908 2.2041C12.8243 2.56543 12.9301 2.98698 13.0082 3.46875C13.0896 3.95052 13.1303 4.49414 13.1303 5.09961V5.20215C13.1303 5.80762 13.0912 6.35124 13.0131 6.83301C12.9912 6.9737 12.967 7.10925 12.9404 7.23967L13.9432 7.23771Z" fill="#3E3A39"/>
<rect width="7.00515" height="7.5" transform="translate(8.99485 8.5)" fill="white"/>
<path d="M12.4918 13.6363L13.7383 9.5H15L13.0848 15H11.9025L9.99485 9.5H11.2527L12.4918 13.6363Z" fill="#201E1E"/>
</g>
<defs>
<clipPath id="clip0_1824_2369">
<rect width="16" height="16" fill="white"/>
</clipPath>
</defs>
</svg>
